<?xml version="1.0" standalone="no"?>
<!DOCTYPE svg PUBLIC "-//W3C//DTD SVG 20010904//EN"
 "http://www.w3.org/TR/2001/REC-SVG-20010904/DTD/svg10.dtd">
<svg version="1.0" xmlns="http://www.w3.org/2000/svg"
 width="260.000000pt" height="260.000000pt" viewBox="0 0 260.000000 260.000000"
 preserveAspectRatio="xMidYMid meet">
<metadata>
Created by potrace 1.11, written by Peter Selinger 2001-2013
</metadata>
<g transform="translate(0.000000,260.000000) scale(0.100000,-0.100000)"
fill="#000000" stroke="none">
<path d="M502 2570 c-43 -26 -62 -74 -62 -153 l0 -64 -57 -16 c-73 -20 -129
-66 -159 -131 -23 -50 -24 -58 -24 -328 l0 -278 1105 0 1105 0 0 288 c0 274
-1 289 -21 322 -46 76 -105 120 -181 134 l-38 7 0 72 c0 83 -12 113 -59 144
-56 38 -125 25 -170 -33 -17 -22 -21 -41 -21 -105 l0 -79 -612 0 -613 0 -1 78
c0 89 -18 126 -71 148 -45 19 -82 17 -121 -6z"/>
<path d="M444 1361 c-2 -2 -4 -60 -4 -128 l0 -123 130 0 131 0 -3 127 -3 127
-123 1 c-68 0 -126 -2 -128 -4z"/>
<path d="M814 1361 c-2 -2 -4 -60 -4 -128 l0 -123 130 0 131 0 -3 127 -3 127
-123 1 c-68 0 -125 -2 -128 -4z"/>
<path d="M1185 1361 c-3 -2 -5 -60 -5 -128 l0 -123 130 0 130 0 0 125 c0 123
0 125 -22 126 -82 4 -230 4 -233 0z"/>
<path d="M1555 1362 c-3 -3 -5 -61 -5 -129 l0 -124 127 3 128 3 0 118 c0 66
-4 121 -9 124 -11 7 -235 11 -241 5z"/>
<path d="M1921 1355 c-5 -5 -8 -62 -7 -125 l1 -115 128 -3 128 -3 -3 128 -3
128 -118 0 c-67 0 -122 -4 -126 -10z"/>
<path d="M447 994 c-4 -4 -7 -63 -7 -131 l0 -123 130 0 131 0 -3 128 -3 127
-121 3 c-66 1 -123 -1 -127 -4z"/>
<path d="M810 870 l0 -130 130 0 131 0 -3 128 -3 127 -127 3 -128 3 0 -131z"/>
<path d="M1180 870 l0 -130 130 0 131 0 -3 128 -3 127 -127 3 -128 3 0 -131z"/>
<path d="M1550 870 l0 -131 127 3 128 3 0 115 c0 63 -1 121 -3 128 -3 9 -38
12 -128 12 l-124 0 0 -130z"/>
<path d="M1918 988 c-3 -7 -4 -65 -4 -128 l1 -115 128 -3 127 -3 0 131 0 130
-124 0 c-90 0 -125 -3 -128 -12z"/>
<path d="M440 500 l0 -130 130 0 130 0 0 130 0 130 -130 0 -130 0 0 -130z"/>
<path d="M810 500 l0 -130 130 0 131 0 -3 128 -3 127 -127 3 -128 3 0 -131z"/>
<path d="M1180 500 l0 -130 130 0 131 0 -3 128 -3 127 -127 3 -128 3 0 -131z"/>
<path d="M1550 500 l0 -131 127 3 127 3 0 125 1 125 -127 3 -128 3 0 -131z"/>
<path d="M1918 618 c-4 -11 -3 -219 1 -240 0 -5 57 -8 126 -8 l125 0 0 130 0
130 -124 0 c-90 0 -125 -3 -128 -12z"/>
<path d="M2399 323 c-10 -60 -58 -124 -121 -158 l-53 -30 -910 0 c-844 0 -913
1 -956 18 -61 23 -117 83 -140 149 l-18 53 -1 -78 c0 -122 42 -197 138 -244
l57 -28 915 0 915 0 45 23 c108 56 143 120 138 252 -2 69 -4 77 -9 43z"/>
</g>
</svg>
